<svg id="Layer_1" data-name="Layer 1" xmlns="http://www.w3.org/2000/svg" viewBox="0 0 1200 1200"><defs><style>.cls-1,.cls-3{fill:none;}.cls-1,.cls-2,.cls-3{stroke:#127ea8;}.cls-1,.cls-2,.cls-3,.cls-5{stroke-miterlimit:10;}.cls-1{stroke-width:4.09px;}.cls-2{fill:#0f9ed6;stroke-width:7.15px;}.cls-3{stroke-width:12.26px;}.cls-4{fill:#fff;}.cls-5{fill:#f87a01;stroke:#fff;stroke-width:12.99px;}</style></defs><line class="cls-1" x1="225.47" y1="1022.51" x2="266.63" y2="1070.77"/><polygon class="cls-2" points="1012.55 1088.78 267.26 1088.78 267.26 202.16 1012.55 202.16 1012.55 210.19 1012.55 1088.78"/><path class="cls-3" d="M1010,201.54s3.27-56.07-65.53-55.83c-73.62,0-718.66-.58-718.66-.58l-1,891.57h39.34"/><polygon class="cls-4" points="232.28 150.95 263.51 199.66 263.5 1064.28 231.13 1026.29 232.28 150.95"/><path class="cls-4" d="M1003.61,199s.7-49.26-64.24-48.5c-65.79.77-706.73-1.53-707.09.48l31.23,48Z"/><path class="cls-5" d="M844.4,1092.3V517.78c0-9-10.68-13.45-16.69-6.87l-147.21,194a9.45,9.45,0,0,1-14.06,0L512.94,511.68c-6-6.58-16.69-2.18-16.69,6.87V1092.3"/></svg>